<svg width="512" height="512" version="1.1" xmlns="http://www.w3.org/2000/svg" desc="Created with imagetracer.js version 1.2.5"><path fill="rgb(0,0,0)" stroke="rgb(0,0,0)" stroke-width="1" opacity="0" d="M 0 0 L 27 0.5 Q 14.8 3.3 8 11.5 Q 2.4 17.4 0.5 27 L 0 0 Z "></path><path fill="rgb(0,0,0)" stroke="rgb(0,0,0)" stroke-width="1" opacity="0" d="M 485.5 0 L 512 0 L 512 26.5 L 511 26.5 Q 508.6 14.4 500.5 8 Q 495.3 2.2 485.5 1 L 485.5 0 Z "></path><path fill="rgb(0,0,0)" stroke="rgb(0,0,0)" stroke-width="1" opacity="0" d="M 33.5 17 L 478.5 17 L 487.5 20 L 492 24.5 L 495 33.5 L 495 290 L 478.5 290 L 478 289.5 L 478 39.5 L 476 36 L 472.5 34 L 39.5 34 L 36 36 L 34 39.5 L 34 290 L 17.5 290 L 17 289.5 L 17 33.5 L 20 24.5 L 24.5 20 L 33.5 17 Z M 109 68 L 107 69 L 68 109 L 69 116 L 76 120 L 83 118 L 118 83 L 120 78 L 118 72 Q 116 67 109 68 Z M 160 68 L 158 69 L 68 160 L 69 167 L 75 171 Q 80 172 83 169 L 169 83 L 171 79 L 170 73 Q 168 67 160 68 Z M 170 119 L 167 120 L 128 160 L 128 166 L 130 169 L 135 171 Q 140 172 143 169 L 179 132 L 179 125 L 177 121 L 170 119 Z "></path><path fill="rgb(0,0,0)" stroke="rgb(0,0,0)" stroke-width="1" opacity="0" d="M 52 52 L 460 52 L 460 290 L 52 290 L 52 52 Z "></path><path fill="rgb(0,0,0)" stroke="rgb(0,0,0)" stroke-width="1" opacity="0" d="M 17 308 L 494.5 308 L 495 308.5 L 495 376.5 L 490 388 L 481.5 392 L 30.5 392 L 22 388 L 17 376.5 L 17 308 Z M 237 324 L 235 325 L 230 332 L 230 369 L 232 373 L 238 376 L 275 376 L 279 374 L 282 369 L 281 363 L 275 358 L 248 358 L 248 342 L 274 342 L 279 340 L 282 335 L 281 329 L 276 324 L 237 324 Z "></path><path fill="rgb(0,0,0)" stroke="rgb(0,0,0)" stroke-width="1" opacity="0" d="M 0.5 383 Q 3.7 397.3 14.5 404 L 19.5 407 L 30.5 410 L 204 410 Q 203.4 437.7 188.5 452 Q 181.9 457.9 171.5 460 L 145.5 460 Q 144 462.5 138.5 461 Q 130.8 463.3 126 468.5 Q 120.7 474.2 119 483.5 L 119 504.5 L 124 511.5 L 0 512 L 0.5 383 Z "></path><path fill="rgb(0,0,0)" stroke="rgb(0,0,0)" stroke-width="1" opacity="0" d="M 511.5 383 L 512 512 L 388 511.5 L 393 504.5 L 393 483.5 Q 391 473 384.5 467 L 373.5 461 Q 368 462.5 366.5 460 L 340.5 460 L 336.5 459 Q 326.1 455.9 320 448.5 Q 313.2 439.8 310 427.5 L 308 410 L 481.5 410 Q 498.9 406.9 507 394.5 L 511.5 383 Z "></path><path fill="rgb(0,0,0)" stroke="rgb(0,0,0)" stroke-width="1" opacity="0" d="M 222 410 L 289.5 410 Q 290.5 410 290 414.5 L 291 415.5 L 291 422.5 L 293 432.5 L 296 441.5 Q 299.7 452.3 307 459.5 L 205.5 460 L 208 456.5 Q 215.2 446.2 219 432.5 L 222 410 Z "></path><path fill="rgb(0,0,0)" stroke="rgb(0,0,0)" stroke-width="1" opacity="0" d="M 144.5 478 L 367.5 478 L 373 480 L 375 483.5 L 375 495 L 137.5 495 L 137 494.5 L 137 483.5 L 139 480 L 144.5 478 Z "></path><path fill="rgb(0,0,0)" stroke="rgb(0,0,0)" stroke-width="1" opacity="0.9058823529411765" d="M 43.5 34 L 469 34.5 L 43.5 35 L 43.5 34 Z "></path><path fill="rgb(0,0,0)" stroke="rgb(0,0,0)" stroke-width="1" opacity="0.9058823529411765" d="M 37.5 36 L 36.5 38 L 37.5 36 Z "></path><path fill="rgb(0,0,0)" stroke="rgb(0,0,0)" stroke-width="1" opacity="0.9058823529411765" d="M 474.5 36 L 475.5 38 L 474.5 36 Z "></path><path fill="rgb(0,0,0)" stroke="rgb(0,0,0)" stroke-width="1" opacity="0.9058823529411765" d="M 34.5 43 L 35 289.5 L 34 289.5 L 34.5 43 Z "></path><path fill="rgb(0,0,0)" stroke="rgb(0,0,0)" stroke-width="1" opacity="0.9058823529411765" d="M 477.5 43 L 478 289.5 L 477 289.5 L 477.5 43 Z "></path><path fill="rgb(0,0,0)" stroke="rgb(0,0,0)" stroke-width="1" opacity="0.9058823529411765" d="M 21.5 387 L 22.5 389 L 21.5 387 Z "></path><path fill="rgb(0,0,0)" stroke="rgb(0,0,0)" stroke-width="1" opacity="0.9058823529411765" d="M 490.5 387 L 489.5 389 L 490.5 387 Z "></path><path fill="rgb(0,0,0)" stroke="rgb(0,0,0)" stroke-width="1" opacity="0.9058823529411765" d="M 9.5 398 L 10.5 400 L 9.5 398 Z "></path><path fill="rgb(0,0,0)" stroke="rgb(0,0,0)" stroke-width="1" opacity="0.9058823529411765" d="M 502.5 398 L 501.5 400 L 502.5 398 Z "></path><path fill="rgb(0,0,0)" stroke="rgb(0,0,0)" stroke-width="1" opacity="0.9058823529411765" d="M 192.5 448 L 188.5 453 L 192.5 448 Z "></path><path fill="rgb(0,0,0)" stroke="rgb(0,0,0)" stroke-width="1" opacity="0.9058823529411765" d="M 319.5 448 L 323.5 453 L 319.5 448 Z "></path><path fill="rgb(0,0,0)" stroke="rgb(0,0,0)" stroke-width="1" opacity="0.9058823529411765" d="M 128.5 467 L 126.5 470 L 128.5 467 Z "></path><path fill="rgb(0,0,0)" stroke="rgb(0,0,0)" stroke-width="1" opacity="0.9058823529411765" d="M 383.5 467 L 385.5 470 L 383.5 467 Z "></path><path fill="rgb(0,0,0)" stroke="rgb(0,0,0)" stroke-width="1" opacity="0.9058823529411765" d="M 145.5 477 L 161 477.5 L 145.5 478 L 145.5 477 Z "></path><path fill="rgb(0,0,0)" stroke="rgb(0,0,0)" stroke-width="1" opacity="0.9058823529411765" d="M 351.5 477 L 367 477.5 L 351.5 478 L 351.5 477 Z "></path><path fill="rgb(0,0,0)" stroke="rgb(0,0,0)" stroke-width="1" opacity="0.9058823529411765" d="M 139.5 479 L 138.5 481 L 139.5 479 Z "></path><path fill="rgb(0,0,0)" stroke="rgb(0,0,0)" stroke-width="1" opacity="0.9058823529411765" d="M 372.5 479 L 373.5 481 L 372.5 479 Z "></path><path fill="rgb(0,0,0)" stroke="rgb(0,0,0)" stroke-width="1" opacity="1" d="M 34.5 0 L 477.5 0 L 491.5 3 L 503 11.5 L 509 20.5 L 512 34.5 L 512 375.5 L 510 386.5 L 506 394.5 L 497.5 403 L 483.5 409 L 307 409 Q 307.2 424.5 312 436.5 Q 315.9 446.6 323.5 453 L 331.5 458 L 342.5 461 L 368.5 461 L 373.5 462 Q 383.2 464.8 388 472.5 L 392 481.5 L 392 505.5 L 387.5 511 L 383.5 512 L 128.5 512 L 124.5 511 L 121 507.5 L 120 505.5 L 120 481.5 Q 123.1 470.6 131.5 465 L 143.5 461 L 169.5 461 L 174.5 460 Q 186.5 457 193 448.5 L 202 430.5 L 205 409 L 28.5 409 Q 13.4 405.6 6 394.5 L 2 386.5 L 0 375.5 L 0 34.5 L 3 20.5 L 11.5 9 L 20.5 3 L 34.5 0 Z M 30 17 L 24 20 L 17 30 L 17 290 L 18 290 L 35 290 L 35 40 L 40 35 L 473 35 L 477 40 L 477 290 L 478 290 L 495 290 L 495 30 L 492 24 L 483 17 L 30 17 Z M 51 51 L 51 290 L 461 290 L 461 51 L 51 51 Z M 17 307 L 17 381 L 21 388 L 31 393 L 482 393 L 490 389 L 495 381 L 495 308 L 495 307 L 17 307 Z M 221 409 Q 220 438 207 457 L 204 461 L 309 461 L 299 447 L 294 433 L 291 418 L 291 410 L 291 409 L 221 409 Z M 146 477 L 140 479 L 136 485 L 136 495 L 137 495 L 376 495 Q 378 485 374 481 L 367 477 L 352 477 L 351 478 L 162 478 L 161 477 L 146 477 Z "></path><path fill="rgb(0,0,0)" stroke="rgb(0,0,0)" stroke-width="1" opacity="1" d="M 108.5 69 Q 116.1 67.9 118 72.5 L 119 78.5 L 117 82.5 L 82.5 117 Q 80.2 119.7 74.5 119 L 70 115.5 L 69 108.5 L 106.5 70 L 108.5 69 Z "></path><path fill="rgb(0,0,0)" stroke="rgb(0,0,0)" stroke-width="1" opacity="1" d="M 159.5 69 Q 167.1 67.9 169 72.5 L 170 79.5 L 82.5 168 Q 80.5 171 74.5 170 L 70 166.5 L 69 159.5 L 157.5 70 L 159.5 69 Z "></path><path fill="rgb(0,0,0)" stroke="rgb(0,0,0)" stroke-width="1" opacity="1" d="M 168.5 120 L 173.5 120 L 178 124.5 L 179 128.5 L 176 134.5 L 142.5 168 Q 140.2 171.2 133.5 170 Q 127.3 168.3 129 158.5 L 168.5 120 Z "></path><path fill="rgb(0,0,0)" stroke="rgb(0,0,0)" stroke-width="1" opacity="1" d="M 236.5 325 L 275.5 325 L 280 328.5 L 281 335.5 L 279 339 L 274.5 341 L 247 341 L 247 359 L 275.5 359 L 280 362.5 L 281 369.5 L 278.5 373 L 274.5 375 L 237.5 375 L 232 371.5 L 231 369.5 L 231 330.5 L 234.5 326 L 236.5 325 Z "></path><path fill="rgb(0,0,0)" stroke="rgb(0,0,0)" stroke-width="1" opacity="0.32941176470588235" d="M 51 51 L 461 51 L 461 289.5 L 460 289.5 L 460 52 L 52 52 L 51.5 290 L 51 51 Z "></path><path fill="rgb(0,0,0)" stroke="rgb(0,0,0)" stroke-width="1" opacity="0.32941176470588235" d="M 117.5 82 L 82.5 118 L 117.5 82 Z "></path><path fill="rgb(0,0,0)" stroke="rgb(0,0,0)" stroke-width="1" opacity="0.32941176470588235" d="M 176.5 134 L 142.5 169 L 176.5 134 Z "></path><path fill="rgb(0,0,0)" stroke="rgb(0,0,0)" stroke-width="1" opacity="0.32941176470588235" d="M 17.5 307 L 42 307.5 L 17.5 308 L 17.5 307 Z "></path><path fill="rgb(0,0,0)" stroke="rgb(0,0,0)" stroke-width="1" opacity="0.32941176470588235" d="M 470.5 307 L 495 307.5 L 470.5 308 L 470.5 307 Z "></path><path fill="rgb(0,0,0)" stroke="rgb(0,0,0)" stroke-width="1" opacity="0.32941176470588235" d="M 279.5 338 L 278.5 340 L 279.5 338 Z "></path><path fill="rgb(0,0,0)" stroke="rgb(0,0,0)" stroke-width="1" opacity="0.32941176470588235" d="M 248.5 341 L 274 341.5 L 248.5 342 L 248.5 341 Z "></path><path fill="rgb(0,0,0)" stroke="rgb(0,0,0)" stroke-width="1" opacity="0.32941176470588235" d="M 5.5 394 L 6.5 396 L 5.5 394 Z "></path><path fill="rgb(0,0,0)" stroke="rgb(0,0,0)" stroke-width="1" opacity="0.32941176470588235" d="M 506.5 394 L 505.5 396 L 506.5 394 Z "></path><path fill="rgb(0,0,0)" stroke="rgb(0,0,0)" stroke-width="1" opacity="0.32941176470588235" d="M 221.5 412 L 222 414.5 L 221 414.5 L 221.5 412 Z "></path><path fill="rgb(0,0,0)" stroke="rgb(0,0,0)" stroke-width="1" opacity="0.32941176470588235" d="M 290.5 412 L 291 414.5 L 290 414.5 L 290.5 412 Z "></path><path fill="rgb(0,0,0)" stroke="rgb(0,0,0)" stroke-width="1" opacity="0.32941176470588235" d="M 207.5 456 L 206.5 458 L 207.5 456 Z "></path><path fill="rgb(0,0,0)" stroke="rgb(0,0,0)" stroke-width="1" opacity="0.32941176470588235" d="M 304.5 456 L 305.5 458 L 304.5 456 Z "></path><path fill="rgb(0,0,0)" stroke="rgb(0,0,0)" stroke-width="1" opacity="0.32941176470588235" d="M 145.5 460 L 163 460.5 L 145.5 461 L 145.5 460 Z "></path><path fill="rgb(0,0,0)" stroke="rgb(0,0,0)" stroke-width="1" opacity="0.32941176470588235" d="M 205.5 460 L 307 460.5 L 205.5 461 L 205.5 460 Z "></path><path fill="rgb(0,0,0)" stroke="rgb(0,0,0)" stroke-width="1" opacity="0.32941176470588235" d="M 349.5 460 L 367 460.5 L 349.5 461 L 349.5 460 Z "></path><path fill="rgb(0,0,0)" stroke="rgb(0,0,0)" stroke-width="1" opacity="0.32941176470588235" d="M 127.5 467 L 126.5 469 L 127.5 467 Z "></path><path fill="rgb(0,0,0)" stroke="rgb(0,0,0)" stroke-width="1" opacity="0.32941176470588235" d="M 384.5 467 L 385.5 469 L 384.5 467 Z "></path><path fill="rgb(0,0,0)" stroke="rgb(0,0,0)" stroke-width="1" opacity="0.47058823529411764" d="M 167.5 83 L 83.5 168 L 167.5 83 Z "></path><path fill="rgb(0,0,0)" stroke="rgb(0,0,0)" stroke-width="1" opacity="0.47058823529411764" d="M 247.5 342 L 248 357.5 L 247 357.5 L 247.5 342 Z "></path><path fill="rgb(0,0,0)" stroke="rgb(0,0,0)" stroke-width="1" opacity="0.47058823529411764" d="M 278.5 360 L 279.5 362 L 278.5 360 Z "></path><path fill="rgb(0,0,0)" stroke="rgb(0,0,0)" stroke-width="1" opacity="0.47058823529411764" d="M 239.5 375 L 273 375.5 L 239.5 376 L 239.5 375 Z "></path><path fill="rgb(0,0,0)" stroke="rgb(0,0,0)" stroke-width="1" opacity="0.47058823529411764" d="M 34.5 392 L 212 392.5 L 34.5 393 L 34.5 392 Z "></path><path fill="rgb(0,0,0)" stroke="rgb(0,0,0)" stroke-width="1" opacity="0.47058823529411764" d="M 300.5 392 L 478 392.5 L 300.5 393 L 300.5 392 Z "></path><path fill="rgb(0,0,0)" stroke="rgb(0,0,0)" stroke-width="1" opacity="0.4666666666666667" d="M 10.5 9 L 9.5 11 L 10.5 9 Z "></path><path fill="rgb(0,0,0)" stroke="rgb(0,0,0)" stroke-width="1" opacity="0.4666666666666667" d="M 501.5 9 L 502.5 11 L 501.5 9 Z "></path><path fill="rgb(0,0,0)" stroke="rgb(0,0,0)" stroke-width="1" opacity="0.4666666666666667" d="M 42.5 307 L 470 307.5 L 42.5 308 L 42.5 307 Z "></path><path fill="rgb(0,0,0)" stroke="rgb(0,0,0)" stroke-width="1" opacity="0.592156862745098" d="M 167.5 70 L 168.5 72 L 167.5 70 Z "></path><path fill="rgb(0,0,0)" stroke="rgb(0,0,0)" stroke-width="1" opacity="0.592156862745098" d="M 155.5 71 L 71.5 156 L 155.5 71 Z "></path><path fill="rgb(0,0,0)" stroke="rgb(0,0,0)" stroke-width="1" opacity="0.592156862745098" d="M 70.5 167 L 71.5 169 L 70.5 167 Z "></path><path fill="rgb(0,0,0)" stroke="rgb(0,0,0)" stroke-width="1" opacity="0.592156862745098" d="M 233.5 326 L 232.5 328 L 233.5 326 Z "></path><path fill="rgb(0,0,0)" stroke="rgb(0,0,0)" stroke-width="1" opacity="0.592156862745098" d="M 278.5 326 L 279.5 328 L 278.5 326 Z "></path><path fill="rgb(0,0,0)" stroke="rgb(0,0,0)" stroke-width="1" opacity="0.592156862745098" d="M 230.5 333 L 231 366.5 L 230 366.5 L 230.5 333 Z "></path><path fill="rgb(0,0,0)" stroke="rgb(0,0,0)" stroke-width="1" opacity="0.592156862745098" d="M 248.5 358 L 273 358.5 L 248.5 359 L 248.5 358 Z "></path><path fill="rgb(0,0,0)" stroke="rgb(0,0,0)" stroke-width="1" opacity="0.592156862745098" d="M 34.5 409 L 203.5 409 L 205 410.5 L 203.5 410 L 34.5 410 L 34.5 409 Z "></path><path fill="rgb(0,0,0)" stroke="rgb(0,0,0)" stroke-width="1" opacity="0.592156862745098" d="M 308.5 409 L 478 409.5 L 308.5 410 L 307.5 411 L 308.5 409 Z "></path><path fill="rgb(0,0,0)" stroke="rgb(0,0,0)" stroke-width="1" opacity="0.592156862745098" d="M 136.5 486 L 137 494.5 L 136 494.5 L 136.5 486 Z "></path><path fill="rgb(0,0,0)" stroke="rgb(0,0,0)" stroke-width="1" opacity="0.592156862745098" d="M 375.5 486 L 376 494.5 L 375 494.5 L 375.5 486 Z "></path><path fill="rgb(0,0,0)" stroke="rgb(0,0,0)" stroke-width="1" opacity="0.592156862745098" d="M 119.5 487 L 120 502.5 L 119 502.5 L 119.5 487 Z "></path><path fill="rgb(0,0,0)" stroke="rgb(0,0,0)" stroke-width="1" opacity="0.592156862745098" d="M 392.5 487 L 393 502.5 L 392 502.5 L 392.5 487 Z "></path><path fill="rgb(0,0,0)" stroke="rgb(0,0,0)" stroke-width="1" opacity="0.7686274509803922" d="M 14.5 6 L 13.5 8 L 14.5 6 Z "></path><path fill="rgb(0,0,0)" stroke="rgb(0,0,0)" stroke-width="1" opacity="0.7686274509803922" d="M 497.5 6 L 498.5 8 L 497.5 6 Z "></path><path fill="rgb(0,0,0)" stroke="rgb(0,0,0)" stroke-width="1" opacity="0.7686274509803922" d="M 7.5 13 L 6.5 15 L 7.5 13 Z "></path><path fill="rgb(0,0,0)" stroke="rgb(0,0,0)" stroke-width="1" opacity="0.7686274509803922" d="M 504.5 13 L 505.5 15 L 504.5 13 Z "></path><path fill="rgb(0,0,0)" stroke="rgb(0,0,0)" stroke-width="1" opacity="0.7686274509803922" d="M 22.5 21 L 21.5 23 L 22.5 21 Z "></path><path fill="rgb(0,0,0)" stroke="rgb(0,0,0)" stroke-width="1" opacity="0.7686274509803922" d="M 489.5 21 L 490.5 23 L 489.5 21 Z "></path><path fill="rgb(0,0,0)" stroke="rgb(0,0,0)" stroke-width="1" opacity="0.7686274509803922" d="M 104.5 71 L 71.5 105 L 104.5 71 Z "></path><path fill="rgb(0,0,0)" stroke="rgb(0,0,0)" stroke-width="1" opacity="0.7686274509803922" d="M 164.5 122 L 130.5 157 L 164.5 122 Z "></path><path fill="rgb(0,0,0)" stroke="rgb(0,0,0)" stroke-width="1" opacity="0.7686274509803922" d="M 239.5 324 L 273 324.5 L 239.5 325 L 239.5 324 Z "></path><path fill="rgb(0,0,0)" stroke="rgb(0,0,0)" stroke-width="1" opacity="0.7686274509803922" d="M 213.5 392 L 299 392.5 L 213.5 393 L 213.5 392 Z "></path><path fill="rgb(0,0,0)" stroke="rgb(0,0,0)" stroke-width="1" opacity="0.7686274509803922" d="M 222.5 409 L 290 409.5 L 222.5 410 L 222.5 409 Z "></path><path fill="rgb(0,0,0)" stroke="rgb(0,0,0)" stroke-width="1" opacity="0.7686274509803922" d="M 204.5 411 L 205 413.5 L 204 413.5 L 204.5 411 Z "></path><path fill="rgb(0,0,0)" stroke="rgb(0,0,0)" stroke-width="1" opacity="0.7686274509803922" d="M 307.5 411 L 308 413.5 L 307 413.5 L 307.5 411 Z "></path><path fill="rgb(0,0,0)" stroke="rgb(0,0,0)" stroke-width="1" opacity="0.7686274509803922" d="M 121.5 508 L 122.5 510 L 121.5 508 Z "></path><path fill="rgb(0,0,0)" stroke="rgb(0,0,0)" stroke-width="1" opacity="0.7686274509803922" d="M 390.5 508 L 389.5 510 L 390.5 508 Z "></path></svg>